<?xml version="1.0" encoding="UTF-8" standalone="no"?>
<svg
   width="128"
   height="128"
   viewBox="0 0 33.866666 33.866666"
   version="1.1"
   xmlns:xlink="http://www.w3.org/1999/xlink"
   xmlns="http://www.w3.org/2000/svg"
   xmlns:svg="http://www.w3.org/2000/svg">
  <g
     id="layer3"
     style="display:inline">
    <g
       id="g20925"
       transform="translate(-3.7027375,3.3999466)">
      <path
         style="fill:none;stroke:#00fe00;stroke-width:0.865;stroke-linecap:round;stroke-linejoin:round;stroke-miterlimit:4;stroke-dasharray:none;stroke-opacity:1"
         d="M 13.803926,6.4923319 C 13.643144,6.4385789 11.138475,6.6023344 10.360994,6.6799239 9.444864,6.7713499 8.8850471,7.554225 8.631082,8.4445337 8.7649359,12.313058 8.5552771,22.578979 8.66522,23.389085 c 0.1205284,0.928116 0.5359058,1.528428 1.652064,1.556388 1.116159,0.02796 18.942941,-0.05246 20.476989,-0.06946 1.534048,-0.017 1.794446,-0.204096 1.796465,-1.344213 0.0091,-5.15299 0.13102,-13.262068 -0.04237,-15.4362285 C 32.490478,7.3696929 31.78339,6.5607628 31.057875,6.4984836 29.194366,6.3385174 27.527722,6.5466906 27.061367,6.5383486 26.595012,6.5300086 26.984507,8.6887203 26.389732,8.6394394 25.794953,8.5901584 14.633041,8.6569914 14.633041,8.6569914 13.778068,8.1772409 14.717351,6.5442749 13.80393,6.492333 Z"
         id="path1148" />
      <ellipse
         style="display:inline;fill:#00ff20;fill-opacity:1;stroke:#ffff00;stroke-width:0;stroke-linecap:round;stroke-linejoin:round;stroke-miterlimit:2;stroke-dasharray:none;stroke-opacity:1"
         id="path9639"
         cx="20.682512"
         cy="5.1627135"
         rx="0.82498813"
         ry="0.75565434" />
      <path
         style="display:inline;fill:none;stroke:#00fe00;stroke-width:0.965;stroke-linecap:round;stroke-linejoin:miter;stroke-miterlimit:4;stroke-dasharray:none;stroke-opacity:1"
         d="m 19.01136,12.988603 9.304718,0.02958"
         id="path12980" />
      <path
         style="display:inline;fill:none;stroke:#00fe00;stroke-width:0.965;stroke-linecap:round;stroke-linejoin:round;stroke-miterlimit:4;stroke-dasharray:none;stroke-opacity:1"
         d="m 13.109573,13.049119 1.102321,1.024836 2.214581,-2.186816"
         id="path13279" />
      <path
         style="display:inline;fill:none;stroke:#00fe00;stroke-width:0.965;stroke-linecap:round;stroke-linejoin:miter;stroke-miterlimit:4;stroke-dasharray:none;stroke-opacity:1"
         d="m 19.002555,17.262311 9.304718,0.02958"
         id="path12980-3" />
      <path
         style="display:inline;fill:none;stroke:#00fe00;stroke-width:0.965;stroke-linecap:round;stroke-linejoin:round;stroke-miterlimit:4;stroke-dasharray:none;stroke-opacity:1"
         d="m 13.100768,17.322827 1.102321,1.024836 2.214581,-2.186816"
         id="path13279-6" />
      <path
         style="display:inline;fill:none;stroke:#00fe00;stroke-width:0.965;stroke-linecap:round;stroke-linejoin:miter;stroke-miterlimit:4;stroke-dasharray:none;stroke-opacity:1"
         d="m 18.95899,21.697134 9.304718,0.02958"
         id="path12980-7" />
      <path
         style="display:inline;fill:none;stroke:#00fe00;stroke-width:0.965;stroke-linecap:round;stroke-linejoin:round;stroke-miterlimit:4;stroke-dasharray:none;stroke-opacity:1"
         d="m 13.057203,21.75765 1.102321,1.024836 2.214581,-2.186816"
         id="path13279-5" />
      <path
         style="display:inline;fill:none;stroke:#00fe00;stroke-width:0.865;stroke-linecap:round;stroke-linejoin:round;stroke-miterlimit:4;stroke-dasharray:none;stroke-opacity:1"
         d="m 14.211052,6.4861843 c 0.0663,-0.2000121 0.119484,-1.1111806 0.518474,-1.4178339 0.610375,-0.4691174 1.586897,0.081529 2.300054,-0.2083598 0.38857,-0.1579487 0.37418,-0.1058327 0.976999,-0.793022 0.60282,-0.6871892 0.240546,-1.5996231 1.049723,-1.7788439 0.809176,-0.1792208 1.98206,-0.2464369 3.009987,-0.061287 0.8213,0.1479325 0.970194,1.329433 1.471206,2.0256634 0.887986,0.8272717 1.41119,0.7471685 2.082809,0.6961911 0,0 0.869721,-0.07245 1.033179,0.2514896 0.388397,0.7697238 0.203085,1.6259009 0.2021,1.6211921"
         id="path13642" />
    </g>
  </g>
</svg>
